REM DIRINDEX 1\5,1\2\6,1\2\7,1\3\8,1\3\9,1\4\10,1\4\11,1\4\12
REM DIRNAME folder01,folder02,folder03,folder04,folder05,folder06,folder07,folder08,folder09,folder10,folder11,folder12
TITLE ""
FILE "EJE_DB3000_5th_4B_38.mp3" MP3
  TRACK 01 AUDIO
    TITLE "0:"
    INDEX 01 00:00:00
  TRACK 02 AUDIO
    TITLE "10:cjc026_09654"
    INDEX 01 00:00:05
  TRACK 03 AUDIO
    TITLE "0:"
    INDEX 01 00:00:72
  TRACK 04 AUDIO
    TITLE "11:cjc026_09655"
    INDEX 01 00:01:22
  TRACK 05 AUDIO
    TITLE "0:"
    INDEX 01 00:02:22
  TRACK 06 AUDIO
    TITLE "12:cjc026_09656"
    INDEX 01 00:02:49
  TRACK 07 AUDIO
    TITLE "0:"
    INDEX 01 00:03:39
  TRACK 08 AUDIO
    TITLE "10:cjc026_09657"
    INDEX 01 00:03:66
  TRACK 09 AUDIO
    TITLE "0:"
    INDEX 01 00:04:68
  TRACK 10 AUDIO
    TITLE "11:cjc026_09658"
    INDEX 01 00:05:20
  TRACK 11 AUDIO
    TITLE "0:"
    INDEX 01 00:06:41
  TRACK 12 AUDIO
    TITLE "12:cjc026_09659"
    INDEX 01 00:06:69
  TRACK 13 AUDIO
    TITLE "0:"
    INDEX 01 00:07:72
  TRACK 14 AUDIO
    TITLE "10:cjc026_09660"
    INDEX 01 00:08:23
  TRACK 15 AUDIO
    TITLE "0:"
    INDEX 01 00:09:10
  TRACK 16 AUDIO
    TITLE "11:cjc026_09661"
    INDEX 01 00:09:38
  TRACK 17 AUDIO
    TITLE "0:"
    INDEX 01 00:10:37
  TRACK 18 AUDIO
    TITLE "12:cjc026_09662"
    INDEX 01 00:10:63
  TRACK 19 AUDIO
    TITLE "0:"
    INDEX 01 00:11:52
  TRACK 20 AUDIO
    TITLE "10:cjc026_09663"
    INDEX 01 00:12:03
  TRACK 21 AUDIO
    TITLE "0:"
    INDEX 01 00:13:59
  TRACK 22 AUDIO
    TITLE "11:cjc026_09664"
    INDEX 01 00:14:11
  TRACK 23 AUDIO
    TITLE "0:"
    INDEX 01 00:15:25
  TRACK 24 AUDIO
    TITLE "12:cjc026_09665"
    INDEX 01 00:15:50
  TRACK 25 AUDIO
    TITLE "0:"
    INDEX 01 00:17:29
  TRACK 26 AUDIO
    TITLE "10:cjc026_09666"
    INDEX 01 00:17:57
  TRACK 27 AUDIO
    TITLE "0:"
    INDEX 01 00:18:46
  TRACK 28 AUDIO
    TITLE "11:cjc026_09667"
    INDEX 01 00:18:74
  TRACK 29 AUDIO
    TITLE "0:"
    INDEX 01 00:19:67
  TRACK 30 AUDIO
    TITLE "12:cjc026_09668"
    INDEX 01 00:20:20
  TRACK 31 AUDIO
    TITLE "0:"
    INDEX 01 00:21:09
  TRACK 32 AUDIO
    TITLE "10:cjc026_09669"
    INDEX 01 00:21:35
  TRACK 33 AUDIO
    TITLE "0:"
    INDEX 01 00:22:17
  TRACK 34 AUDIO
    TITLE "11:cjc026_09670"
    INDEX 01 00:22:40
  TRACK 35 AUDIO
    TITLE "0:"
    INDEX 01 00:23:22
  TRACK 36 AUDIO
    TITLE "12:cjc026_09671"
    INDEX 01 00:23:48
  TRACK 37 AUDIO
    TITLE "0:"
    INDEX 01 00:24:27
  TRACK 38 AUDIO
    TITLE "10:cjc026_09672"
    INDEX 01 00:24:53
  TRACK 39 AUDIO
    TITLE "0:"
    INDEX 01 00:25:50
  TRACK 40 AUDIO
    TITLE "11:cjc026_09673"
    INDEX 01 00:26:01
  TRACK 41 AUDIO
    TITLE "0:"
    INDEX 01 00:27:12
  TRACK 42 AUDIO
    TITLE "12:cjc026_09674"
    INDEX 01 00:27:38
  TRACK 43 AUDIO
    TITLE "0:"
    INDEX 01 00:28:35
  TRACK 44 AUDIO
    TITLE "10:cjc026_09675"
    INDEX 01 00:28:60
  TRACK 45 AUDIO
    TITLE "0:"
    INDEX 01 00:29:56
  TRACK 46 AUDIO
    TITLE "11:cjc026_09676"
    INDEX 01 00:30:06
  TRACK 47 AUDIO
    TITLE "0:"
    INDEX 01 00:31:12
  TRACK 48 AUDIO
    TITLE "12:cjc026_09677"
    INDEX 01 00:31:35
  TRACK 49 AUDIO
    TITLE "0:"
    INDEX 01 00:32:33
  TRACK 50 AUDIO
    TITLE "10:cjc026_09678"
    INDEX 01 00:32:56
  TRACK 51 AUDIO
    TITLE "0:"
    INDEX 01 00:33:56
  TRACK 52 AUDIO
    TITLE "11:cjc026_09679"
    INDEX 01 00:34:06
  TRACK 53 AUDIO
    TITLE "0:"
    INDEX 01 00:35:06
  TRACK 54 AUDIO
    TITLE "12:cjc026_09680"
    INDEX 01 00:35:31
  TRACK 55 AUDIO
    TITLE "0:"
    INDEX 01 00:36:29
  TRACK 56 AUDIO
    TITLE "10:cjc026_09681"
    INDEX 01 00:36:56
  TRACK 57 AUDIO
    TITLE "0:"
    INDEX 01 00:37:56
  TRACK 58 AUDIO
    TITLE "11:cjc026_09682"
    INDEX 01 00:38:08
  TRACK 59 AUDIO
    TITLE "0:"
    INDEX 01 00:39:21
  TRACK 60 AUDIO
    TITLE "12:cjc026_09683"
    INDEX 01 00:39:49
  TRACK 61 AUDIO
    TITLE "0:"
    INDEX 01 00:40:46
  TRACK 62 AUDIO
    TITLE "10:cjc026_09684"
    INDEX 01 00:40:73
  TRACK 63 AUDIO
    TITLE "0:"
    INDEX 01 00:41:61
  TRACK 64 AUDIO
    TITLE "11:cjc026_09685"
    INDEX 01 00:42:14
  TRACK 65 AUDIO
    TITLE "0:"
    INDEX 01 00:43:17
  TRACK 66 AUDIO
    TITLE "12:cjc026_09686"
    INDEX 01 00:43:42
  TRACK 67 AUDIO
    TITLE "0:"
    INDEX 01 00:44:32
  TRACK 68 AUDIO
    TITLE "10:cjc026_09687"
    INDEX 01 00:44:58
  TRACK 69 AUDIO
    TITLE "0:"
    INDEX 01 00:45:47
  TRACK 70 AUDIO
    TITLE "11:cjc026_09688"
    INDEX 01 00:45:73
  TRACK 71 AUDIO
    TITLE "0:"
    INDEX 01 00:47:01
  TRACK 72 AUDIO
    TITLE "12:cjc026_09689"
    INDEX 01 00:47:27
  TRACK 73 AUDIO
    TITLE "0:"
    INDEX 01 00:48:14
  TRACK 74 AUDIO
    TITLE "10:cjc026_09690"
    INDEX 01 00:48:42
  TRACK 75 AUDIO
    TITLE "0:"
    INDEX 01 00:49:33
  TRACK 76 AUDIO
    TITLE "11:cjc026_09691"
    INDEX 01 00:49:61
  TRACK 77 AUDIO
    TITLE "0:"
    INDEX 01 00:50:62
  TRACK 78 AUDIO
    TITLE "12:cjc026_09692"
    INDEX 01 00:51:13
  TRACK 79 AUDIO
    TITLE "0:"
    INDEX 01 00:52:04
